<svg xmlns="http://www.w3.org/2000/svg" width="512" height="512" viewBox="0 0 512 512" fill="none">
  <g stroke="#3F3D42" stroke-width="13" stroke-linecap="round" stroke-linejoin="round">
    <path d="M156 280C104 260 77 223 86 184C97 135 151 105 223 104C309 103 371 141 376 195C381 252 319 294 231 291C211 290 193 287 177 282L139 307L145 273"/>
    <path d="M382 146C432 160 461 195 458 235C456 266 436 293 405 311L410 348L376 324C349 332 318 332 291 326C279 323 268 319 258 314"/>
    <path d="M166 212C156 213 149 221 150 231C151 238 159 239 166 234C173 239 182 237 183 230C184 220 176 212 166 212Z"/>
    <circle cx="149" cy="199" r="6"/>
    <circle cx="163" cy="192" r="6"/>
    <circle cx="178" cy="196" r="6"/>
    <path d="M218 214C208 215 201 223 202 233C203 240 211 241 218 236C225 241 234 239 235 232C236 222 228 214 218 214Z"/>
    <circle cx="201" cy="201" r="6"/>
    <circle cx="215" cy="194" r="6"/>
    <circle cx="230" cy="198" r="6"/>
    <path d="M272 214C262 215 255 223 256 233C257 240 265 241 272 236C279 241 288 239 289 232C290 222 282 214 272 214Z"/>
    <circle cx="255" cy="201" r="6"/>
    <circle cx="269" cy="194" r="6"/>
    <circle cx="284" cy="198" r="6"/>
  </g>
</svg>
