<?xml version="1.0" encoding="UTF-8"?>
<svg xmlns="http://www.w3.org/2000/svg" width="1254" height="1254" viewBox="0 0 1254 1254">
  <path d="M 808.0 796.0 L 806.0 803.0 L 806.0 816.0 L 809.0 823.0 L 814.0 828.0 L 820.0 831.0 L 830.0 832.0 L 848.0 827.0 L 854.0 827.0 L 871.0 832.0 L 882.0 832.0 L 888.0 830.0 L 894.0 825.0 L 897.0 820.0 L 899.0 813.0 L 899.0 806.0 L 897.0 798.0 L 887.0 781.0 L 876.0 770.0 L 870.0 766.0 L 857.0 762.0 L 843.0 763.0 L 830.0 769.0 L 815.0 784.0 Z M 817.0 803.0 L 825.0 790.0 L 837.0 778.0 L 845.0 774.0 L 855.0 773.0 L 866.0 777.0 L 876.0 786.0 L 883.0 795.0 L 887.0 803.0 L 888.0 813.0 L 886.0 817.0 L 881.0 821.0 L 872.0 821.0 L 857.0 816.0 L 847.0 816.0 L 834.0 820.0 L 826.0 821.0 L 821.0 819.0 L 818.0 816.0 L 816.0 811.0 Z M 902.0 744.0 L 895.0 748.0 L 891.0 753.0 L 888.0 761.0 L 888.0 768.0 L 890.0 774.0 L 895.0 779.0 L 899.0 781.0 L 909.0 781.0 L 915.0 778.0 L 920.0 773.0 L 923.0 767.0 L 924.0 760.0 L 922.0 752.0 L 918.0 747.0 L 912.0 744.0 Z M 908.0 753.0 L 913.0 757.0 L 914.0 763.0 L 908.0 771.0 L 903.0 772.0 L 899.0 769.0 L 898.0 762.0 L 904.0 754.0 Z M 794.0 742.0 L 789.0 744.0 L 784.0 749.0 L 782.0 754.0 L 782.0 764.0 L 785.0 771.0 L 791.0 777.0 L 798.0 780.0 L 805.0 780.0 L 808.0 779.0 L 814.0 774.0 L 817.0 768.0 L 817.0 757.0 L 815.0 752.0 L 809.0 745.0 L 803.0 742.0 Z M 796.0 752.0 L 801.0 752.0 L 806.0 757.0 L 807.0 765.0 L 803.0 770.0 L 797.0 769.0 L 792.0 763.0 L 792.0 756.0 Z M 594.0 740.0 L 594.0 746.0 L 596.0 749.0 L 604.0 752.0 L 619.0 755.0 L 625.0 755.0 L 626.0 756.0 L 638.0 756.0 L 639.0 757.0 L 661.0 756.0 L 668.0 754.0 L 671.0 748.0 L 669.0 742.0 L 666.0 740.0 L 635.0 741.0 L 634.0 740.0 L 619.0 739.0 L 605.0 735.0 L 599.0 735.0 Z M 376.0 730.0 L 372.0 729.0 L 367.0 731.0 L 358.0 743.0 L 348.0 763.0 L 348.0 767.0 L 352.0 772.0 L 357.0 773.0 L 362.0 770.0 L 372.0 750.0 L 379.0 741.0 L 380.0 735.0 Z M 880.0 713.0 L 869.0 714.0 L 859.0 724.0 L 857.0 730.0 L 857.0 743.0 L 860.0 749.0 L 866.0 754.0 L 876.0 755.0 L 883.0 752.0 L 888.0 747.0 L 892.0 738.0 L 891.0 723.0 L 886.0 716.0 Z M 878.0 723.0 L 882.0 728.0 L 882.0 735.0 L 880.0 740.0 L 875.0 745.0 L 871.0 745.0 L 867.0 741.0 L 866.0 737.0 L 867.0 731.0 L 873.0 723.0 Z M 830.0 711.0 L 822.0 714.0 L 818.0 718.0 L 815.0 724.0 L 814.0 734.0 L 815.0 739.0 L 819.0 747.0 L 823.0 751.0 L 829.0 754.0 L 838.0 754.0 L 842.0 752.0 L 847.0 747.0 L 850.0 739.0 L 850.0 730.0 L 846.0 720.0 L 840.0 714.0 Z M 829.0 722.0 L 834.0 722.0 L 839.0 729.0 L 840.0 737.0 L 839.0 740.0 L 835.0 744.0 L 831.0 744.0 L 826.0 739.0 L 824.0 731.0 L 825.0 726.0 Z M 490.0 698.0 L 491.0 704.0 L 494.0 707.0 L 500.0 708.0 L 520.0 716.0 L 544.0 729.0 L 549.0 729.0 L 554.0 725.0 L 555.0 720.0 L 554.0 717.0 L 551.0 714.0 L 518.0 698.0 L 501.0 692.0 L 494.0 693.0 Z M 451.0 692.0 L 447.0 688.0 L 438.0 688.0 L 416.0 694.0 L 403.0 700.0 L 399.0 705.0 L 399.0 710.0 L 402.0 714.0 L 408.0 715.0 L 426.0 707.0 L 447.0 703.0 L 451.0 699.0 Z M 768.0 672.0 L 766.0 671.0 L 758.0 672.0 L 744.0 691.0 L 724.0 711.0 L 710.0 721.0 L 708.0 725.0 L 708.0 729.0 L 712.0 734.0 L 717.0 735.0 L 723.0 732.0 L 735.0 723.0 L 753.0 705.0 L 762.0 694.0 L 771.0 680.0 L 771.0 676.0 Z M 794.0 579.0 L 788.0 581.0 L 786.0 584.0 L 783.0 610.0 L 780.0 624.0 L 778.0 628.0 L 779.0 633.0 L 784.0 637.0 L 789.0 637.0 L 793.0 634.0 L 799.0 609.0 L 801.0 584.0 L 799.0 581.0 Z M 483.0 464.0 L 482.0 483.0 L 485.0 490.0 L 493.0 498.0 L 505.0 502.0 L 515.0 501.0 L 530.0 496.0 L 542.0 496.0 L 564.0 502.0 L 573.0 501.0 L 582.0 497.0 L 587.0 492.0 L 590.0 487.0 L 592.0 480.0 L 592.0 469.0 L 587.0 456.0 L 579.0 444.0 L 562.0 427.0 L 555.0 423.0 L 546.0 420.0 L 528.0 420.0 L 521.0 422.0 L 510.0 428.0 L 494.0 445.0 L 489.0 452.0 Z M 493.0 471.0 L 495.0 465.0 L 501.0 455.0 L 518.0 437.0 L 529.0 432.0 L 541.0 431.0 L 554.0 436.0 L 570.0 452.0 L 577.0 462.0 L 580.0 469.0 L 580.0 480.0 L 579.0 483.0 L 574.0 488.0 L 569.0 490.0 L 563.0 490.0 L 544.0 484.0 L 529.0 484.0 L 509.0 490.0 L 504.0 490.0 L 498.0 487.0 L 494.0 482.0 Z M 608.0 398.0 L 601.0 396.0 L 594.0 397.0 L 588.0 400.0 L 582.0 406.0 L 578.0 416.0 L 578.0 426.0 L 580.0 432.0 L 586.0 438.0 L 591.0 440.0 L 601.0 440.0 L 609.0 436.0 L 615.0 429.0 L 618.0 422.0 L 618.0 411.0 L 615.0 404.0 Z M 602.0 407.0 L 607.0 412.0 L 608.0 415.0 L 607.0 422.0 L 601.0 429.0 L 594.0 430.0 L 589.0 426.0 L 588.0 423.0 L 589.0 415.0 L 595.0 408.0 Z M 472.0 396.0 L 462.0 400.0 L 457.0 406.0 L 455.0 411.0 L 455.0 422.0 L 459.0 431.0 L 464.0 436.0 L 471.0 440.0 L 478.0 441.0 L 487.0 438.0 L 492.0 433.0 L 495.0 427.0 L 495.0 415.0 L 492.0 407.0 L 488.0 402.0 L 482.0 398.0 Z M 471.0 407.0 L 478.0 408.0 L 484.0 415.0 L 485.0 422.0 L 483.0 427.0 L 479.0 430.0 L 472.0 429.0 L 467.0 424.0 L 465.0 420.0 L 465.0 414.0 L 467.0 410.0 Z M 569.0 362.0 L 560.0 361.0 L 552.0 364.0 L 544.0 373.0 L 541.0 381.0 L 542.0 398.0 L 544.0 402.0 L 550.0 408.0 L 554.0 410.0 L 564.0 410.0 L 569.0 408.0 L 577.0 400.0 L 581.0 390.0 L 580.0 373.0 L 577.0 368.0 Z M 559.0 372.0 L 567.0 373.0 L 571.0 380.0 L 570.0 390.0 L 568.0 394.0 L 562.0 399.0 L 556.0 399.0 L 552.0 395.0 L 551.0 392.0 L 552.0 381.0 L 554.0 377.0 Z M 507.0 361.0 L 499.0 365.0 L 495.0 370.0 L 492.0 377.0 L 492.0 390.0 L 495.0 398.0 L 504.0 408.0 L 509.0 410.0 L 519.0 410.0 L 523.0 408.0 L 529.0 402.0 L 531.0 398.0 L 533.0 388.0 L 532.0 387.0 L 532.0 380.0 L 528.0 371.0 L 523.0 365.0 L 515.0 361.0 Z M 510.0 371.0 L 514.0 372.0 L 519.0 377.0 L 522.0 384.0 L 522.0 392.0 L 517.0 399.0 L 509.0 398.0 L 503.0 390.0 L 502.0 386.0 L 503.0 378.0 Z M 282.0 563.0 L 277.0 588.0 L 277.0 593.0 L 275.0 599.0 L 273.0 616.0 L 271.0 621.0 L 271.0 626.0 L 267.0 643.0 L 264.0 665.0 L 259.0 687.0 L 251.0 737.0 L 249.0 743.0 L 248.0 754.0 L 246.0 759.0 L 240.0 799.0 L 237.0 810.0 L 237.0 815.0 L 235.0 821.0 L 232.0 843.0 L 227.0 866.0 L 228.0 876.0 L 233.0 882.0 L 237.0 884.0 L 247.0 884.0 L 251.0 882.0 L 254.0 882.0 L 267.0 877.0 L 280.0 874.0 L 322.0 860.0 L 332.0 858.0 L 345.0 853.0 L 358.0 850.0 L 371.0 845.0 L 381.0 843.0 L 394.0 838.0 L 397.0 838.0 L 438.0 825.0 L 452.0 825.0 L 456.0 827.0 L 480.0 833.0 L 490.0 837.0 L 500.0 839.0 L 588.0 868.0 L 591.0 868.0 L 597.0 871.0 L 600.0 871.0 L 603.0 873.0 L 707.0 908.0 L 723.0 908.0 L 801.0 892.0 L 806.0 892.0 L 822.0 888.0 L 854.0 883.0 L 864.0 880.0 L 869.0 880.0 L 969.0 860.0 L 990.0 857.0 L 995.0 855.0 L 1001.0 849.0 L 1003.0 840.0 L 1000.0 828.0 L 998.0 824.0 L 996.0 813.0 L 994.0 809.0 L 992.0 798.0 L 990.0 794.0 L 988.0 783.0 L 984.0 772.0 L 968.0 710.0 L 962.0 692.0 L 960.0 681.0 L 952.0 656.0 L 942.0 616.0 L 936.0 598.0 L 929.0 569.0 L 926.0 562.0 L 922.0 544.0 L 913.0 515.0 L 908.0 510.0 L 904.0 508.0 L 893.0 508.0 L 870.0 513.0 L 859.0 514.0 L 853.0 516.0 L 830.0 519.0 L 824.0 521.0 L 819.0 521.0 L 813.0 523.0 L 808.0 523.0 L 802.0 525.0 L 797.0 525.0 L 780.0 529.0 L 753.0 533.0 L 720.0 540.0 L 715.0 540.0 L 709.0 542.0 L 704.0 542.0 L 687.0 546.0 L 679.0 546.0 L 655.0 540.0 L 651.0 538.0 L 636.0 535.0 L 634.0 532.0 L 641.0 520.0 L 641.0 518.0 L 648.0 505.0 L 662.0 468.0 L 667.0 449.0 L 669.0 431.0 L 670.0 430.0 L 670.0 406.0 L 669.0 405.0 L 668.0 392.0 L 664.0 376.0 L 656.0 356.0 L 641.0 332.0 L 620.0 310.0 L 606.0 300.0 L 589.0 291.0 L 569.0 284.0 L 553.0 282.0 L 552.0 281.0 L 538.0 281.0 L 535.0 280.0 L 534.0 281.0 L 515.0 282.0 L 498.0 286.0 L 480.0 293.0 L 469.0 299.0 L 451.0 312.0 L 437.0 326.0 L 427.0 339.0 L 416.0 359.0 L 409.0 377.0 L 405.0 393.0 L 404.0 409.0 L 403.0 410.0 L 404.0 437.0 L 409.0 461.0 L 420.0 493.0 L 432.0 520.0 L 429.0 522.0 L 421.0 524.0 L 412.0 525.0 L 378.0 534.0 L 374.0 534.0 L 327.0 546.0 L 323.0 546.0 L 314.0 549.0 L 293.0 553.0 L 286.0 557.0 Z M 986.0 837.0 L 986.0 840.0 L 984.0 842.0 L 958.0 846.0 L 952.0 848.0 L 947.0 848.0 L 941.0 850.0 L 936.0 850.0 L 852.0 867.0 L 836.0 869.0 L 805.0 876.0 L 800.0 876.0 L 764.0 884.0 L 759.0 884.0 L 717.0 893.0 L 712.0 893.0 L 703.0 889.0 L 691.0 886.0 L 685.0 883.0 L 682.0 883.0 L 679.0 881.0 L 656.0 874.0 L 653.0 872.0 L 612.0 859.0 L 609.0 857.0 L 600.0 855.0 L 506.0 824.0 L 503.0 824.0 L 457.0 810.0 L 437.0 809.0 L 395.0 822.0 L 385.0 824.0 L 365.0 831.0 L 362.0 831.0 L 297.0 852.0 L 287.0 854.0 L 255.0 865.0 L 252.0 865.0 L 248.0 867.0 L 244.0 866.0 L 244.0 861.0 L 252.0 821.0 L 252.0 816.0 L 254.0 810.0 L 259.0 776.0 L 262.0 765.0 L 265.0 743.0 L 270.0 721.0 L 272.0 704.0 L 274.0 698.0 L 281.0 654.0 L 284.0 643.0 L 290.0 604.0 L 297.0 570.0 L 299.0 568.0 L 303.0 568.0 L 312.0 565.0 L 342.0 559.0 L 436.0 536.0 L 440.0 536.0 L 442.0 538.0 L 445.0 545.0 L 469.0 583.0 L 502.0 626.0 L 530.0 655.0 L 538.0 657.0 L 544.0 655.0 L 558.0 641.0 L 576.0 620.0 L 608.0 577.0 L 625.0 549.0 L 629.0 549.0 L 673.0 561.0 L 687.0 562.0 L 717.0 556.0 L 722.0 556.0 L 733.0 553.0 L 744.0 552.0 L 755.0 549.0 L 760.0 549.0 L 771.0 546.0 L 782.0 545.0 L 793.0 542.0 L 798.0 542.0 L 809.0 539.0 L 814.0 539.0 L 837.0 534.0 L 899.0 524.0 L 908.0 553.0 L 909.0 560.0 L 912.0 567.0 L 913.0 574.0 L 917.0 585.0 L 931.0 639.0 L 934.0 646.0 L 936.0 657.0 L 942.0 675.0 L 952.0 715.0 L 959.0 737.0 L 962.0 752.0 L 972.0 784.0 L 975.0 799.0 L 977.0 803.0 L 979.0 814.0 Z M 524.0 297.0 L 550.0 297.0 L 566.0 300.0 L 580.0 305.0 L 594.0 312.0 L 612.0 325.0 L 628.0 342.0 L 638.0 357.0 L 644.0 369.0 L 650.0 386.0 L 653.0 401.0 L 653.0 408.0 L 654.0 409.0 L 654.0 427.0 L 653.0 428.0 L 653.0 436.0 L 650.0 451.0 L 643.0 474.0 L 627.0 512.0 L 609.0 545.0 L 586.0 580.0 L 563.0 610.0 L 538.0 638.0 L 536.0 638.0 L 523.0 625.0 L 498.0 595.0 L 484.0 576.0 L 458.0 535.0 L 440.0 499.0 L 431.0 477.0 L 424.0 456.0 L 420.0 437.0 L 420.0 430.0 L 419.0 429.0 L 419.0 407.0 L 423.0 386.0 L 427.0 374.0 L 435.0 357.0 L 446.0 341.0 L 461.0 325.0 L 479.0 312.0 L 493.0 305.0 L 508.0 300.0 Z" fill="#000000" fill-rule="evenodd" stroke="#000000" stroke-width="30" stroke-linejoin="round" stroke-linecap="round"/>
</svg>
